# AST/ASF file generated using VICON BodyLanguage
# -----------------------------------------------
:version 1.10
:name VICON
:units
  mass 1.0
  length 0.45
  angle deg
:documentation
   .ast/.asf automatically generated from VICON data using
   VICON BodyBuilder and BodyLanguage model FoxedUp or BRILLIANT.MOD
:root
   order TX TY TZ RX RY RZ
   axis XYZ
   position 0 0 0  
   orientation 0 0 0 
:bonedata
  begin
     id 1 
     name lhipjoint
     direction 0.567149 -0.783011 0.255413 
     length 2.28399 
     axis 0 0 0  XYZ
  end
  begin
     id 2 
     name lfemur
     direction 0.34202 -0.939693 0  
     length 7.34031  
     axis 0 0 20  XYZ
    dof rx ry rz
    limits (-160.0 20.0)
           (-70.0 70.0)
           (-60.0 70.0)
  end
  begin
     id 3 
     name ltibia
     direction 0.34202 -0.939693 0   
     length 6.9833   
     axis 0 0 20   XYZ
    dof rx
    limits (-10.0 170.0)
  end
  begin
     id 4 
     name lfoot
     direction 0.136498 -0.375025 0.91691   
     length 2.33665   
     axis -90 7.62852e-016 20   XYZ
    dof rx rz
    limits (-45.0 90.0)
           (-70.0 20.0)
  end
  begin
     id 5 
     name ltoes
     direction 1.5367e-011 -4.21617e-011 1   
     length 1.15039   
     axis -90 7.62852e-016 20   XYZ
    dof rx
    limits (-90.0 20.0)
  end
  begin
     id 6 
     name rhipjoint
     direction -0.602854 -0.758518 0.247423   
     length 2.35775  
     axis 0 0 0  XYZ 
  end
  begin
     id 7 
     name rfemur
     direction -0.34202 -0.939693 0   
     length 7.43932   
     axis 0 0 -20   XYZ
    dof rx ry rz
    limits (-160.0 20.0)
           (-70.0 70.0)
           (-70.0 60.0)
  end
  begin
     id 8 
     name rtibia
     direction -0.34202 -0.939693 0   
     length 7.11893   
     axis 0 0 -20   XYZ
    dof rx
    limits (-10.0 170.0)
 end
 begin
     id 9 
     name rfoot
     direction -0.131771 -0.362037 0.922803   
     length 2.53019  
     axis -90 -7.62852e-016 -20   XYZ
    dof rx rz
    limits (-45.0 90.0)
           (-20.0 70.0)
  end
  begin
     id 10 
     name rtoes
     direction -1.53733e-011 -4.21932e-011 1   
     length 1.24596   
     axis -90 -7.62852e-016 -20   XYZ
    dof rx
    limits (-90.0 20.0)
  end
  begin
     id 11 
     name lowerback
     direction 0.0235427 0.999023 -0.0374125   
     length 2.21768   
     axis 0 0 0   XYZ
    dof rx ry rz
    limits (-20.0 45.0)
           (-30.0 30.0)
           (-30.0 30.0)
  end
  begin
     id 12 
     name upperback
     direction 0.0302156 0.996818 -0.073759   
     length 2.20352   
     axis 0 0 0   XYZ
    dof rx ry rz
    limits (-20.0 45.0)
           (-30.0 30.0)
           (-30.0 30.0)
  end
  begin
     id 13 
     name thorax
     direction 0.0187169 0.998235 -0.0563532   
     length 2.22103   
     axis 0 0 0   XYZ
    dof rx ry rz
    limits (-20.0 45.0)
           (-30.0 30.0)
           (-30.0 30.0)
  end
  begin
     id 14 
     name lowerneck
     direction -0.119528 0.987423 0.103481   
     length 1.72948   
     axis 0 0 0   XYZ
    dof rx ry rz
    limits (-20.0 45.0)
           (-30.0 30.0)
           (-30.0 30.0)
  end
  begin
     id 15 
     name upperneck
     direction 0.248049 0.963095 -0.104496   
     length 1.74979   
     axis 0 0 0   XYZ
    dof rx ry rz
    limits (-20.0 45.0)
           (-30.0 30.0)
           (-30.0 30.0)
  end
  begin
     id 16
     name head
     direction 0.0903589 0.994284 -0.056876  
     length 1.78268  
     axis 0 0 0   XYZ
    dof rx ry rz
    limits (-20.0 45.0)
           (-30.0 30.0)
           (-30.0 30.0)
  end
  begin
     id 17 
     name lclavicle
     direction 0.946008 0.242039 -0.215608  
     length 3.80783  
     axis 0 0 0   XYZ
    dof ry rz
    limits (-20.0 10.0)
           (0.0 20.0)
  end
  begin
     id 18 
     name lhumerus
     direction 1 -4.48991e-011 -2.25695e-027   
     length 4.83125   
     axis 180 -30 -90   XYZ
    dof rx ry rz
    limits (-60.0 90.0)
           (-90.0 90.0)
           (-90.0 90.0)
  end
  begin
     id 19
     name lradius
     direction 0.999991 0.00366712 -0.00211721   
     length 3.00391   
     axis 180 -30 -90   XYZ
    dof rx
    limits (-10.0 170.0)
  end
  begin
     id 20
     name lwrist
     direction 0.999991 0.00393016 -0.00141978   
     length 1.50195   
     axis -1.00488e-014 90 90   XYZ
    dof ry
    limits (-180.0 0.0)
 end
  begin
     id 21 
     name lhand
     direction 1 -4.49123e-011 2.72098e-026   
     length 1.2717   
     axis -1.73687e-014 90 90   XYZ
    dof rx rz
    limits (-90.0 90.0)
           (-45.0 45.0)
  end
  begin
     id 22 
     name lfingers
     direction 1 -4.48678e-011 5.4479e-026   
     length 1.02528   
     axis -3.47372e-014 90 90   XYZ
    dof rx
    limits (0.0 90.0)
  end
  begin
     id 23
     name lthumb
     direction 0.707107 -6.34851e-011 0.707107   
     length 1.4721   
     axis -90 45 -1.62303e-014   XYZ
    dof rx rz
    limits (-45.0 45.0)
           (-45.0 45.0)
  end
  begin
     id 24 
     name rclavicle
     direction -0.981723 0.189447 -0.0181673   
     length 3.74989  
     axis 0 0 0   XYZ 
    dof ry rz
    limits (-10.0 20.0)
           (-20.0 0.0)
  end
  begin
     id 25 
     name rhumerus
     direction -1 -4.48985e-011 2.38206e-027  
     length 4.61118   
     axis 180 30 90   XYZ
    dof rx ry rz
    limits (-90.0 60.0)
           (-90.0 90.0)
           (-90.0 90.0)
  end
  begin
     id 26 
     name rradius
     direction -1 -4.48977e-011 7.41019e-027   
     length 2.91491   
     axis 180 30 90   XYZ
    dof rx
    limits (-10.0 170.0)
  end
  begin
     id 27 
     name rwrist
     direction -1 -4.48549e-011 1.3624e-026   
     length 1.45745   
     axis -1.00488e-014 -90 -90   XYZ
    dof ry
    limits (-180.0 0.0)
  end
  begin
     id 28
     name rhand
     direction -1 -4.49107e-011 2.72109e-026   
     length 1.30769   
     axis -1.73687e-014 -90 -90   XYZ
    dof rx rz
    limits (-90.0 90.0)
           (-45.0 45.0)
  end
  begin
     id 29
     name rfingers
     direction -1 -4.48919e-011 5.44468e-026   
     length 1.05429   
     axis -3.47372e-014 -90 -90   XYZ
    dof rx
    limits (0.0 90.0)
  end
  begin
     id 30
     name rthumb
     direction -0.707107 -6.35315e-011 0.707107   
     length 1.51376   
     axis -90 -45 1.62303e-014   XYZ
    dof rx rz
    limits (-45.0 45.0)
           (-45.0 45.0)
  end
:hierarchy
  begin
    root lhipjoint rhipjoint lowerback
    lhipjoint lfemur
    lfemur ltibia
    ltibia lfoot
    lfoot ltoes
    rhipjoint rfemur
    rfemur rtibia
    rtibia rfoot
    rfoot rtoes
    lowerback upperback
    upperback thorax
    thorax lowerneck lclavicle rclavicle
    lowerneck upperneck
    upperneck head
    lclavicle lhumerus
    lhumerus lradius
    lradius lwrist
    lwrist lhand lthumb
    lhand lfingers
    rclavicle rhumerus
    rhumerus rradius
    rradius rwrist
    rwrist rhand rthumb
    rhand rfingers
  end

#!OML:ASF X:\für Bonn\!DataBase\2005_08_11_Bastian_Final\c3d\Bastian.ASF
:FULLY-SPECIFIED
:DEGREES
1
root -2.66681 16.8174 -2.67344 544.037 80.2866 -521.162
lowerback 8.31803 -3.2015 2.11644
upperback 9.60858 -3.7157 2.0075
thorax 5.38388 -1.57643 1.06478
lowerneck 0.233178 -9.01994 -9.73319
upperneck 8.36977 -13.083 16.8338
head 4.20761 -6.14183 6.17401
rclavicle -3.48867e-014 1.63003e-014
rhumerus -36.3781 -1.0263 -83.6324
rradius 28.4267
rwrist -1.36482
rhand -20.7303 -4.26686
rfingers 7.12502
rthumb 5.63475 -34.1719
lclavicle -3.48867e-014 1.63003e-014
lhumerus -14 -9.37227 86.413
lradius 32.4295
lwrist 17.7108
lhand -14.5549 -9.0086
lfingers 7.12502
lthumb 11.594 20.6507
rfemur -18.51 1.13303 19.9591
rtibia 33.7818
rfoot 0.0651955 -5.8539
rtoes -22.3861
lfemur 23.0843 -4.77122 -9.66031
ltibia 40.6152
lfoot -1.44239 -10.6084
ltoes -32.2759
2
root -2.48395 16.8187 -2.64394 545.987 80.2388 -518.991
lowerback 8.48172 -3.15867 2.51903
upperback 9.64309 -3.62725 2.11649
thorax 5.3131 -1.50682 0.959921
lowerneck 0.301982 -9.12891 -9.60814
upperneck 8.49583 -13.2402 16.7481
head 4.24132 -6.21455 6.11652
rclavicle -1.81888e-014 7.15625e-015
rhumerus -36.1813 -1.21773 -83.554
rradius 28.1296
rwrist -1.28691
rhand -20.7826 -4.23559
rfingers 7.12502
rthumb 5.58423 -34.142
lclavicle -1.81888e-014 7.15625e-015
lhumerus -14.5478 -9.04258 86.7986
lradius 32.2388
lwrist 17.3059
lhand -14.7114 -9.06829
lfingers 7.12502
lthumb 11.4431 20.5994
rfemur -17.9891 0.695179 20.5873
rtibia 34.1903
rfoot 0.205272 -5.38708
rtoes -22.1422
lfemur 21.5245 -4.65197 -9.05353
ltibia 44.1365
lfoot 1.37473 -9.92356
ltoes -33.4491
3
root -2.30394 16.827 -2.61657 547.967 80.1622 -516.798
lowerback 8.67289 -3.12934 2.94532
upperback 9.67158 -3.55182 2.22194
thorax 5.22046 -1.44235 0.839798
lowerneck 0.377307 -9.24075 -9.4451
upperneck 8.61364 -13.3997 16.6535
head 4.26831 -6.28778 6.05045
rclavicle -3.54831e-014 1.66979e-014
rhumerus -35.9582 -1.49774 -83.4206
rradius 27.8155
rwrist -1.08063
rhand -20.7692 -4.12138
rfingers 7.12502
rthumb 5.59721 -34.0275
lclavicle -3.54831e-014 1.66979e-014
lhumerus -15.0474 -8.59543 87.1491
lradius 31.9708
lwrist 16.848
lhand -14.752 -9.20262
lfingers 7.12502
lthumb 11.4039 20.4673
rfemur -17.4013 0.298315 21.2168
rtibia 34.4878
rfoot 0.311203 -4.97779
rtoes -21.9064
lfemur 19.8765 -4.52721 -8.4599
ltibia 47.5635
lfoot 4.17259 -9.1041
ltoes -33.8764
4
root -2.1279 16.8401 -2.59061 549.91 80.0615 -514.63
lowerback 8.89949 -3.1082 3.38227
upperback 9.70662 -3.48116 2.3255
thorax 5.11613 -1.37914 0.713249
lowerneck 0.419546 -9.35394 -9.31439
upperneck 8.77421 -13.5684 16.6169
head 4.32094 -6.3606 6.00535
rclavicle -2.48481e-015 7.95139e-016
rhumerus -35.7256 -1.62952 -83.3524
rradius 27.5325
rwrist -1.05283
rhand -20.8755 -3.97701
rfingers 7.12502
rthumb 5.49453 -33.8858
lclavicle -2.48481e-015 7.95139e-016
lhumerus -15.5348 -8.304 87.4752
lradius 31.6615
lwrist 16.5148
lhand -14.7528 -9.18186
lfingers 7.12502
lthumb 11.4031 20.4881
rfemur -16.7224 -0.00463594 21.8292
rtibia 34.65
rfoot 0.325401 -4.71777
rtoes -21.5388
lfemur 18.1935 -4.36102 -7.86427
ltibia 50.8859
lfoot 6.73801 -8.25264
ltoes -34.1751
5
root -1.9546 16.8546 -2.56603 551.337 79.958 -512.959
lowerback 9.13775 -3.08939 3.72975
upperback 9.77283 -3.41351 2.41125
thorax 5.04417 -1.32084 0.617572
lowerneck 0.403679 -9.47223 -9.14444
upperneck 8.95795 -13.742 16.5478
head 4.38591 -6.43195 5.94015
rclavicle -4.62174e-014 5.00937e-014
rhumerus -35.4407 -1.71967 -83.2886
rradius 27.2742
rwrist -1.00105
rhand -20.9661 -3.8942
rfingers 7.12502
rthumb 5.40705 -33.8052
lclavicle -4.62174e-014 5.00937e-014
lhumerus -15.9662 -7.99709 87.8002
lradius 31.2583
lwrist 16.1919
lhand -14.7982 -9.17193
lfingers 7.12502
lthumb 11.3594 20.5004
rfemur -15.9662 -0.270193 22.3532
rtibia 34.7372
rfoot 0.309952 -4.51961
rtoes -21.2149
lfemur 16.5132 -4.18455 -7.38137
ltibia 54.1128
lfoot 8.87471 -7.32315
ltoes -33.9639
6
root -1.7864 16.8786 -2.5417 552.706 79.8378 -511.36
lowerback 9.37253 -3.08286 4.05774
upperback 9.86804 -3.36014 2.51025
thorax 5.00843 -1.26928 0.546554
lowerneck 0.339744 -9.58586 -8.98944
upperneck 9.12235 -13.9072 16.4945
head 4.45409 -6.49786 5.88049
rclavicle -7.7526e-015 -1.59028e-015
rhumerus -35.0752 -1.74542 -83.2364
rradius 27.034
rwrist -1.03665
rhand -21.0886 -3.72384
rfingers 7.12502
rthumb 5.28877 -33.6378
lclavicle -7.7526e-015 -1.59028e-015
lhumerus -16.295 -7.66157 88.1
lradius 30.7336
lwrist 15.8351
lhand -14.7475 -9.24674
lfingers 7.12502
lthumb 11.4083 20.4229
rfemur -15.1691 -0.360807 22.8723
rtibia 34.7631
rfoot 0.237165 -4.52038
rtoes -20.3998
lfemur 14.8126 -4.01663 -6.94279
ltibia 57.1922
lfoot 10.4482 -6.45498
ltoes -33.5816
7
root -1.62294 16.8966 -2.51952 553.791 79.7328 -510.091
lowerback 9.62381 -3.08435 4.32571
upperback 9.9253 -3.31942 2.60366
thorax 4.92578 -1.23003 0.504432
lowerneck 0.332699 -9.67476 -8.82026
upperneck 9.23921 -14.033 16.4141
head 4.48968 -6.54967 5.8167
rclavicle 1.28216e-014 4.77083e-015
rhumerus -34.7149 -1.81305 -83.1324
rradius 26.7747
rwrist -0.911394
rhand -21.2007 -3.56071
rfingers 7.12502
rthumb 5.18052 -33.4774
lclavicle 1.28216e-014 4.77083e-015
lhumerus -16.6841 -7.39323 88.3942
lradius 30.1805
lwrist 15.5572
lhand -14.7252 -9.16877
lfingers 7.12502
lthumb 11.4298 20.4997
rfemur -14.4301 -0.401902 23.319
rtibia 34.7969
rfoot 0.113149 -4.59036
rtoes -19.4686
lfemur 13.0653 -3.83031 -6.6041
ltibia 60.1199
lfoot 11.4706 -5.56843
ltoes -32.4845
8
root -1.46398 16.9133 -2.49934 554.6 79.6303 -509.097
lowerback 9.89966 -3.08112 4.53659
upperback 9.97906 -3.27196 2.70886
thorax 4.83018 -1.19144 0.5067
lowerneck 0.361484 -9.76691 -8.65556
upperneck 9.3352 -14.158 16.2916
head 4.50974 -6.60574 5.74249
rclavicle -3.71727e-014 4.77083e-014
rhumerus -34.3735 -1.7259 -83.0333
rradius 26.587
rwrist -0.953557
rhand -21.3547 -3.37809
rfingers 7.12502
rthumb 5.03185 -33.2983
lclavicle -3.71727e-014 4.77083e-014
lhumerus -17.0544 -6.96246 88.7004
lradius 29.5406
lwrist 15.129
lhand -14.5722 -8.83618
lfingers 7.12502
lthumb 11.5773 20.824
rfemur -13.6911 -0.469586 23.7093
rtibia 34.8108
rfoot -0.0432288 -4.63142
rtoes -18.4418
lfemur 11.3288 -3.62963 -6.35769
ltibia 62.8414
lfoot 11.9619 -4.90671
ltoes -30.5549
9
root -1.30953 16.9305 -2.4814 554.991 79.5662 -508.534
lowerback 10.1861 -3.06804 4.70615
upperback 10.0384 -3.21152 2.76653
thorax 4.73451 -1.14746 0.481367
lowerneck 0.410504 -9.87179 -8.4359
upperneck 9.40363 -14.2982 16.1736
head 4.51613 -6.66882 5.66132
rclavicle 7.45443e-015 -1.43125e-014
rhumerus -33.9977 -1.71147 -82.9403
rradius 26.4025
rwrist -0.941769
rhand -21.4899 -3.24977
rfingers 7.12502
rthumb 4.90137 -33.1731
lclavicle 7.45443e-015 -1.43125e-014
lhumerus -17.3579 -6.52915 88.9682
lradius 28.7505
lwrist 14.7503
lhand -14.3537 -8.4683
lfingers 7.12502
lthumb 11.7881 21.18
rfemur -12.9745 -0.497115 23.9992
rtibia 34.8589
rfoot -0.272875 -4.71981
rtoes -17.235
lfemur 9.61676 -3.3995 -6.25957
ltibia 65.318
lfoot 12.035 -4.47249
ltoes -27.6315
10
root -1.15949 16.9483 -2.46462 555.432 79.5159 -507.949
lowerback 10.4353 -3.06037 4.86582
upperback 10.1378 -3.15976 2.82882
thorax 4.70398 -1.10574 0.464785
lowerneck 0.372862 -9.9769 -8.22911
upperneck 9.49311 -14.4402 16.0683
head 4.54538 -6.72817 5.58124
rclavicle 1.83876e-014 -8.74653e-015
rhumerus -33.5009 -1.70924 -82.8507
rradius 26.2439
rwrist -0.795249
rhand -21.6125 -3.20595
rfingers 7.12502
rthumb 4.78298 -33.132
lclavicle 1.83876e-014 -8.74653e-015
lhumerus -17.5395 -6.05262 89.1943
lradius 27.8943
lwrist 14.4508
lhand -14.0322 -8.01008
lfingers 7.12502
lthumb 12.098 21.6202
rfemur -12.2846 -0.466613 24.2881
rtibia 34.8852
rfoot -0.473709 -4.82685
rtoes -16.0079
lfemur 7.92249 -3.1474 -6.20855
ltibia 67.5075
lfoot 11.7668 -4.21765
ltoes -24.0938
11
root -1.0133 16.9669 -2.44976 556.105 79.5134 -507.163
lowerback 10.6443 -3.0345 5.05307
upperback 10.248 -3.08452 2.91076
thorax 4.70832 -1.05004 0.450072
lowerneck 0.335659 -10.0834 -8.04252
upperneck 9.55574 -14.5809 15.9599
head 4.56714 -6.78929 5.50373
rclavicle -7.25564e-015 -3.29983e-014
rhumerus -32.9781 -1.61674 -82.7269
rradius 26.1095
rwrist -0.719648
rhand -21.7027 -3.13024
rfingers 7.12502
rthumb 4.69582 -33.0582
lclavicle -7.25564e-015 -3.29983e-014
lhumerus -17.6805 -5.57269 89.4318
lradius 27.0007
lwrist 14.0949
lhand -13.6337 -7.45505
lfingers 7.12502
lthumb 12.4823 22.1522
rfemur -11.6275 -0.382137 24.5987
rtibia 34.8903
rfoot -0.829087 -4.99812
rtoes -15.2162
lfemur 6.25683 -2.80734 -6.19451
ltibia 69.3653
lfoot 11.1646 -4.20482
ltoes -21.3815
